<?xml version="1.0" standalone="no"?><!DOCTYPE svg PUBLIC "-//W3C//DTD SVG 1.1//EN" "http://www.w3.org/Graphics/SVG/1.1/DTD/svg11.dtd"><svg t="1510217418667" class="icon" style="" viewBox="0 0 1024 1024" version="1.1" xmlns="http://www.w3.org/2000/svg" p-id="7526" xmlns:xlink="http://www.w3.org/1999/xlink" width="16" height="16"><defs><style type="text/css"></style></defs><path d="M714.168977 348.923878l-407.418107 0.38988c-22.401196 0-40.588417-18.160615-40.588417-40.588417s18.134009-40.614 40.588417-40.614l407.418107-0.38988c22.427802 0 40.587394 18.187221 40.587394 40.588417C754.756371 330.763263 736.596779 348.923878 714.168977 348.923878L714.168977 348.923878zM714.168977 511.278569l-407.418107 0.38988c-22.401196 0-40.588417-18.186198-40.588417-40.614s18.134009-40.588417 40.588417-40.588417l407.418107-0.38988c22.427802 0 40.587394 18.187221 40.587394 40.588417C754.756371 493.115907 736.596779 511.278569 714.168977 511.278569L714.168977 511.278569zM857.892333 666.866137c-0.623193 0.442068-1.143033 1.014096-1.793856 1.430582l-271.031856 271.708262c-7.284917 11.004635-19.668968 18.237363-33.82334 18.237363-5.671163 0-11.057847-1.170662-15.94925-3.27765-0.25992-0.105401-0.493234-0.260943-0.701988-0.363274-6.765077-3.070942-17.172101-12.853749-12.904914-8.586562-0.677429-0.650823-4.370541-6.244214-5.568832-8.378831-4.526083-7.648191-6.40078-16.104793-5.462408-24.665773l-0.260943-198.777229 0.260943 0 0-40.614c0-44.828998 36.347836-81.151251 81.175811-81.151251l43.137473 0 0-0.155543 159.750377-0.207731-0.284479-373.229446c-1.613754-60.180638-18.99461-71.836095-80.839143-71.836095l37.050848-0.911766-469.160309 0.234337 26.227338 0.677429c-65.12423 0-81.175811 12.227486-81.175811 81.149205l0 566.208623c0 68.921719 16.078187 81.149205 81.175811 81.149205l79.249949 0.989537c22.401196 0 40.588417 18.160615 40.588417 40.588417s-18.160615 40.614-40.588417 40.614l-119.838366 0.206708 0-0.234337-40.537252 0c-44.855604 0-81.175811-36.320207-81.175811-81.175811l0-43.085284-0.053212 0-0.312108-644.286885 0.36532 0L145.412322 146.008398c0-43.605124 34.44858-78.886675 77.586053-80.812537l572.034305-0.312108c43.502793 0.155543 78.628802 34.552957 80.500429 77.586053l0.364297 481.388818C872.543008 608.820116 887.867018 647.899156 857.892333 666.866137L857.892333 666.866137zM673.946904 673.551396c-90.700745-0.728594-81.307817-9.67843-82.375126 79.199807l0.105401 65.697281 144.737452-145.103796L673.946904 673.551396 673.946904 673.551396zM794.408463 146.059564l-0.206708 0 0.206708 27.137057L794.408463 146.059564 794.408463 146.059564zM794.408463 146.059564" p-id="7527" fill="#13227a"></path></svg>