<?xml version="1.0" standalone="no"?><!DOCTYPE svg PUBLIC "-//W3C//DTD SVG 1.1//EN" "http://www.w3.org/Graphics/SVG/1.1/DTD/svg11.dtd"><svg t="1510219114899" class="icon" style="" viewBox="0 0 1024 1024" version="1.1" xmlns="http://www.w3.org/2000/svg" p-id="24332" xmlns:xlink="http://www.w3.org/1999/xlink" width="32" height="32"><defs><style type="text/css"></style></defs><path d="M392.96 944.64H110.72a27.52 27.52 0 0 1-27.52-27.52V108.16a27.52 27.52 0 0 1 27.52-27.52h776.32a27.52 27.52 0 0 1 27.52 27.52V320a32 32 0 0 0 56.32 17.92 31.36 31.36 0 0 0 7.68-17.92V108.16A91.52 91.52 0 0 0 887.04 16H110.72A91.52 91.52 0 0 0 19.2 108.16v807.68a92.16 92.16 0 0 0 91.52 91.52h282.24a31.36 31.36 0 0 0 20.48-10.88 32 32 0 0 0-4.48-44.8 31.36 31.36 0 0 0-16-7.04z" fill="#13227a" p-id="24333"></path><path d="M488.96 349.44a32 32 0 0 0-32-29.44H170.88a32 32 0 0 0 0 64h286.08a32 32 0 0 0 32-34.56zM392.32 507.52H170.88a32 32 0 0 0 0 64h221.44a32 32 0 0 0 0-64zM849.28 729.6a192 192 0 1 0-229.12 0 269.44 269.44 0 0 0-155.52 243.2 32 32 0 0 0 64 0A206.08 206.08 0 0 1 729.6 768h11.52a206.08 206.08 0 0 1 199.68 204.8 32 32 0 0 0 64 0 269.44 269.44 0 0 0-155.52-243.2zM734.72 448a128 128 0 1 1-128 128 128 128 0 0 1 128-128z" fill="#13227a" p-id="24334"></path></svg>